<?xml version="1.0" encoding="UTF-8" standalone="no"?>
<!DOCTYPE svg PUBLIC "-//W3C//DTD SVG 1.1//EN"
 "http://www.w3.org/Graphics/SVG/1.1/DTD/svg11.dtd">
<!-- Generated by graphviz version 2.47.0 (20210316.0004)
 -->
<!-- Title: dependencies Pages: 1 -->
<svg width="578pt" height="284pt"
 viewBox="0.00 0.00 578.00 284.00" xmlns="http://www.w3.org/2000/svg" xmlns:xlink="http://www.w3.org/1999/xlink">
<g id="graph0" class="graph" transform="scale(1 1) rotate(0) translate(4 280)">
<title>dependencies</title>
<polygon fill="white" stroke="transparent" points="-4,4 -4,-280 574,-280 574,4 -4,4"/>
<text text-anchor="start" x="264.01" y="-42.4" font-family="Times-12" font-weight="bold" font-size="14.00">Legend</text>
<polygon fill="#ffffb3" stroke="transparent" points="51,-10 51,-30 71,-30 71,-10 51,-10"/>
<text text-anchor="start" x="74.63" y="-15.4" font-family="Times-12" font-size="14.00"> &#160;Declarations</text>
<polygon fill="#8dd3c7" stroke="transparent" points="164,-10 164,-30 184,-30 184,-10 164,-10"/>
<text text-anchor="start" x="187.73" y="-15.4" font-family="Times-12" font-size="14.00"> &#160;Module</text>
<polygon fill="#80b1d3" stroke="transparent" points="250,-10 250,-30 270,-30 270,-10 250,-10"/>
<text text-anchor="start" x="273.78" y="-15.4" font-family="Times-12" font-size="14.00"> &#160;Bootstrap</text>
<polygon fill="#fdb462" stroke="transparent" points="347,-10 347,-30 367,-30 367,-10 347,-10"/>
<text text-anchor="start" x="370.67" y="-15.4" font-family="Times-12" font-size="14.00"> &#160;Providers</text>
<polygon fill="#fb8072" stroke="transparent" points="443,-10 443,-30 463,-30 463,-10 443,-10"/>
<text text-anchor="start" x="466.73" y="-15.4" font-family="Times-12" font-size="14.00"> &#160;Exports</text>
<g id="clust1" class="cluster">
<title>cluster_SharedModule</title>
<polygon fill="none" stroke="black" stroke-dasharray="1,5" points="8,-70 8,-268 562,-268 562,-70 8,-70"/>
</g>
<g id="clust6" class="cluster">
<title>cluster_SharedModule_exports</title>
<polygon fill="none" stroke="black" points="78,-208 78,-260 493,-260 493,-208 78,-208"/>
</g>
<g id="clust5" class="cluster">
<title>cluster_SharedModule_imports</title>
<polygon fill="none" stroke="black" points="432,-78 432,-130 554,-130 554,-78 432,-78"/>
</g>
<g id="clust2" class="cluster">
<title>cluster_SharedModule_declarations</title>
<polygon fill="none" stroke="black" points="16,-78 16,-130 424,-130 424,-78 16,-78"/>
</g>
<!-- TableHeadersDropdownComponent -->
<g id="node1" class="node">
<title>TableHeadersDropdownComponent</title>
<polygon fill="#ffffb3" stroke="black" points="416.43,-122 197.57,-122 197.57,-86 416.43,-86 416.43,-122"/>
<text text-anchor="middle" x="307" y="-99.8" font-family="Times,serif" font-size="14.00">TableHeadersDropdownComponent</text>
</g>
<!-- SharedModule -->
<g id="node3" class="node">
<title>SharedModule</title>
<polygon fill="#8dd3c7" stroke="black" points="356.42,-187 353.42,-191 332.42,-191 329.42,-187 257.58,-187 257.58,-151 356.42,-151 356.42,-187"/>
<text text-anchor="middle" x="307" y="-164.8" font-family="Times,serif" font-size="14.00">SharedModule</text>
</g>
<!-- TableHeadersDropdownComponent&#45;&gt;SharedModule -->
<g id="edge1" class="edge">
<title>TableHeadersDropdownComponent&#45;&gt;SharedModule</title>
<path fill="none" stroke="black" d="M307,-122.11C307,-122.11 307,-140.99 307,-140.99"/>
<polygon fill="black" stroke="black" points="303.5,-140.99 307,-150.99 310.5,-140.99 303.5,-140.99"/>
</g>
<!-- TabularViewComponent -->
<g id="node2" class="node">
<title>TabularViewComponent</title>
<polygon fill="#ffffb3" stroke="black" points="179.68,-122 24.32,-122 24.32,-86 179.68,-86 179.68,-122"/>
<text text-anchor="middle" x="102" y="-99.8" font-family="Times,serif" font-size="14.00">TabularViewComponent</text>
</g>
<!-- TabularViewComponent&#45;&gt;SharedModule -->
<g id="edge2" class="edge">
<title>TabularViewComponent&#45;&gt;SharedModule</title>
<path fill="none" stroke="black" d="M132.62,-122.02C132.62,-139.37 132.62,-163 132.62,-163 132.62,-163 247.5,-163 247.5,-163"/>
<polygon fill="black" stroke="black" points="247.5,-166.5 257.5,-163 247.5,-159.5 247.5,-166.5"/>
</g>
<!-- TableHeadersDropdownComponent  -->
<g id="node5" class="node">
<title>TableHeadersDropdownComponent </title>
<polygon fill="#fb8072" stroke="black" points="485.43,-252 262.57,-252 262.57,-216 485.43,-216 485.43,-252"/>
<text text-anchor="middle" x="374" y="-229.8" font-family="Times,serif" font-size="14.00">TableHeadersDropdownComponent </text>
</g>
<!-- SharedModule&#45;&gt;TableHeadersDropdownComponent  -->
<g id="edge4" class="edge">
<title>SharedModule&#45;&gt;TableHeadersDropdownComponent </title>
<path fill="none" stroke="black" stroke-dasharray="5,2" d="M309.5,-187.11C309.5,-187.11 309.5,-205.99 309.5,-205.99"/>
<polygon fill="black" stroke="black" points="306,-205.99 309.5,-215.99 313,-205.99 306,-205.99"/>
</g>
<!-- TabularViewComponent  -->
<g id="node6" class="node">
<title>TabularViewComponent </title>
<polygon fill="#fb8072" stroke="black" points="244.18,-252 85.82,-252 85.82,-216 244.18,-216 244.18,-252"/>
<text text-anchor="middle" x="165" y="-229.8" font-family="Times,serif" font-size="14.00">TabularViewComponent </text>
</g>
<!-- SharedModule&#45;&gt;TabularViewComponent  -->
<g id="edge5" class="edge">
<title>SharedModule&#45;&gt;TabularViewComponent </title>
<path fill="none" stroke="black" stroke-dasharray="5,2" d="M257.44,-175C238.3,-175 220.94,-175 220.94,-175 220.94,-175 220.94,-205.98 220.94,-205.98"/>
<polygon fill="black" stroke="black" points="217.44,-205.98 220.94,-215.98 224.44,-205.98 217.44,-205.98"/>
</g>
<!-- MaterialModule -->
<g id="node4" class="node">
<title>MaterialModule</title>
<polygon fill="#8dd3c7" stroke="black" points="546.47,-122 543.47,-126 522.47,-126 519.47,-122 439.53,-122 439.53,-86 546.47,-86 546.47,-122"/>
<text text-anchor="middle" x="493" y="-99.8" font-family="Times,serif" font-size="14.00">MaterialModule</text>
</g>
<!-- MaterialModule&#45;&gt;SharedModule -->
<g id="edge3" class="edge">
<title>MaterialModule&#45;&gt;SharedModule</title>
<path fill="none" stroke="black" d="M462.37,-122.11C462.37,-141.34 462.37,-169 462.37,-169 462.37,-169 366.59,-169 366.59,-169"/>
<polygon fill="black" stroke="black" points="366.59,-165.5 356.59,-169 366.59,-172.5 366.59,-165.5"/>
</g>
</g>
</svg>
