<?xml version="1.0" encoding="UTF-8" standalone="no"?>
<!DOCTYPE svg PUBLIC "-//W3C//DTD SVG 1.1//EN"
 "http://www.w3.org/Graphics/SVG/1.1/DTD/svg11.dtd">
<!-- Generated by graphviz version 2.47.0 (20210316.0004)
 -->
<!-- Title: dependencies Pages: 1 -->
<svg width="629pt" height="211pt"
 viewBox="0.00 0.00 629.00 211.00" xmlns="http://www.w3.org/2000/svg" xmlns:xlink="http://www.w3.org/1999/xlink">
<g id="graph0" class="graph" transform="scale(1 1) rotate(0) translate(4 207)">
<title>dependencies</title>
<polygon fill="white" stroke="transparent" points="-4,4 -4,-207 625,-207 625,4 -4,4"/>
<text text-anchor="start" x="289.51" y="-42.4" font-family="Times-12" font-weight="bold" font-size="14.00">Legend</text>
<polygon fill="#ffffb3" stroke="transparent" points="76.5,-10 76.5,-30 96.5,-30 96.5,-10 76.5,-10"/>
<text text-anchor="start" x="100.13" y="-15.4" font-family="Times-12" font-size="14.00"> &#160;Declarations</text>
<polygon fill="#8dd3c7" stroke="transparent" points="189.5,-10 189.5,-30 209.5,-30 209.5,-10 189.5,-10"/>
<text text-anchor="start" x="213.23" y="-15.4" font-family="Times-12" font-size="14.00"> &#160;Module</text>
<polygon fill="#80b1d3" stroke="transparent" points="275.5,-10 275.5,-30 295.5,-30 295.5,-10 275.5,-10"/>
<text text-anchor="start" x="299.28" y="-15.4" font-family="Times-12" font-size="14.00"> &#160;Bootstrap</text>
<polygon fill="#fdb462" stroke="transparent" points="372.5,-10 372.5,-30 392.5,-30 392.5,-10 372.5,-10"/>
<text text-anchor="start" x="396.17" y="-15.4" font-family="Times-12" font-size="14.00"> &#160;Providers</text>
<polygon fill="#fb8072" stroke="transparent" points="468.5,-10 468.5,-30 488.5,-30 488.5,-10 468.5,-10"/>
<text text-anchor="start" x="492.23" y="-15.4" font-family="Times-12" font-size="14.00"> &#160;Exports</text>
<g id="clust1" class="cluster">
<title>cluster_CloudOptionsModule</title>
<polygon fill="none" stroke="black" stroke-dasharray="1,5" points="8,-70 8,-195 613,-195 613,-70 8,-70"/>
</g>
<g id="clust2" class="cluster">
<title>cluster_CloudOptionsModule_declarations</title>
<polygon fill="none" stroke="black" points="465,-78 465,-130 605,-130 605,-78 465,-78"/>
</g>
<g id="clust4" class="cluster">
<title>cluster_CloudOptionsModule_imports</title>
<polygon fill="none" stroke="black" points="16,-78 16,-130 457,-130 457,-78 16,-78"/>
</g>
<!-- TabBarComponent -->
<g id="node1" class="node">
<title>TabBarComponent</title>
<polygon fill="#ffffb3" stroke="black" points="596.81,-122 473.19,-122 473.19,-86 596.81,-86 596.81,-122"/>
<text text-anchor="middle" x="535" y="-99.8" font-family="Times,serif" font-size="14.00">TabBarComponent</text>
</g>
<!-- CloudOptionsModule -->
<g id="node2" class="node">
<title>CloudOptionsModule</title>
<polygon fill="#8dd3c7" stroke="black" points="344.11,-187 341.11,-191 320.11,-191 317.11,-187 205.89,-187 205.89,-151 344.11,-151 344.11,-187"/>
<text text-anchor="middle" x="275" y="-164.8" font-family="Times,serif" font-size="14.00">CloudOptionsModule</text>
</g>
<!-- TabBarComponent&#45;&gt;CloudOptionsModule -->
<g id="edge1" class="edge">
<title>TabBarComponent&#45;&gt;CloudOptionsModule</title>
<path fill="none" stroke="black" d="M535,-122.11C535,-141.34 535,-169 535,-169 535,-169 354.33,-169 354.33,-169"/>
<polygon fill="black" stroke="black" points="354.33,-165.5 344.33,-169 354.33,-172.5 354.33,-165.5"/>
</g>
<!-- CloudOptionsRoutingModule -->
<g id="node3" class="node">
<title>CloudOptionsRoutingModule</title>
<polygon fill="#8dd3c7" stroke="black" points="448.73,-122 445.73,-126 424.73,-126 421.73,-122 265.27,-122 265.27,-86 448.73,-86 448.73,-122"/>
<text text-anchor="middle" x="357" y="-99.8" font-family="Times,serif" font-size="14.00">CloudOptionsRoutingModule</text>
</g>
<!-- CloudOptionsRoutingModule&#45;&gt;CloudOptionsModule -->
<g id="edge2" class="edge">
<title>CloudOptionsRoutingModule&#45;&gt;CloudOptionsModule</title>
<path fill="none" stroke="black" d="M304.72,-122.11C304.72,-122.11 304.72,-140.99 304.72,-140.99"/>
<polygon fill="black" stroke="black" points="301.22,-140.99 304.72,-150.99 308.22,-140.99 301.22,-140.99"/>
</g>
<!-- MaterialModule -->
<g id="node4" class="node">
<title>MaterialModule</title>
<polygon fill="#8dd3c7" stroke="black" points="247.47,-122 244.47,-126 223.47,-126 220.47,-122 140.53,-122 140.53,-86 247.47,-86 247.47,-122"/>
<text text-anchor="middle" x="194" y="-99.8" font-family="Times,serif" font-size="14.00">MaterialModule</text>
</g>
<!-- MaterialModule&#45;&gt;CloudOptionsModule -->
<g id="edge3" class="edge">
<title>MaterialModule&#45;&gt;CloudOptionsModule</title>
<path fill="none" stroke="black" d="M226.72,-122.11C226.72,-122.11 226.72,-140.99 226.72,-140.99"/>
<polygon fill="black" stroke="black" points="223.22,-140.99 226.72,-150.99 230.22,-140.99 223.22,-140.99"/>
</g>
<!-- SharedModule -->
<g id="node5" class="node">
<title>SharedModule</title>
<polygon fill="#8dd3c7" stroke="black" points="122.42,-122 119.42,-126 98.42,-126 95.42,-122 23.58,-122 23.58,-86 122.42,-86 122.42,-122"/>
<text text-anchor="middle" x="73" y="-99.8" font-family="Times,serif" font-size="14.00">SharedModule</text>
</g>
<!-- SharedModule&#45;&gt;CloudOptionsModule -->
<g id="edge4" class="edge">
<title>SharedModule&#45;&gt;CloudOptionsModule</title>
<path fill="none" stroke="black" d="M73,-122.11C73,-141.34 73,-169 73,-169 73,-169 195.77,-169 195.77,-169"/>
<polygon fill="black" stroke="black" points="195.77,-172.5 205.77,-169 195.77,-165.5 195.77,-172.5"/>
</g>
</g>
</svg>
