<?xml version="1.0" encoding="UTF-8" standalone="no"?>
<!DOCTYPE svg PUBLIC "-//W3C//DTD SVG 1.1//EN"
 "http://www.w3.org/Graphics/SVG/1.1/DTD/svg11.dtd">
<!-- Generated by graphviz version 2.47.0 (20210316.0004)
 -->
<!-- Title: dependencies Pages: 1 -->
<svg width="959pt" height="211pt"
 viewBox="0.00 0.00 959.00 211.00" xmlns="http://www.w3.org/2000/svg" xmlns:xlink="http://www.w3.org/1999/xlink">
<g id="graph0" class="graph" transform="scale(1 1) rotate(0) translate(4 207)">
<title>dependencies</title>
<polygon fill="white" stroke="transparent" points="-4,4 -4,-207 955,-207 955,4 -4,4"/>
<text text-anchor="start" x="454.51" y="-42.4" font-family="Times-12" font-weight="bold" font-size="14.00">Legend</text>
<polygon fill="#ffffb3" stroke="transparent" points="241.5,-10 241.5,-30 261.5,-30 261.5,-10 241.5,-10"/>
<text text-anchor="start" x="265.13" y="-15.4" font-family="Times-12" font-size="14.00"> &#160;Declarations</text>
<polygon fill="#8dd3c7" stroke="transparent" points="354.5,-10 354.5,-30 374.5,-30 374.5,-10 354.5,-10"/>
<text text-anchor="start" x="378.23" y="-15.4" font-family="Times-12" font-size="14.00"> &#160;Module</text>
<polygon fill="#80b1d3" stroke="transparent" points="440.5,-10 440.5,-30 460.5,-30 460.5,-10 440.5,-10"/>
<text text-anchor="start" x="464.28" y="-15.4" font-family="Times-12" font-size="14.00"> &#160;Bootstrap</text>
<polygon fill="#fdb462" stroke="transparent" points="537.5,-10 537.5,-30 557.5,-30 557.5,-10 537.5,-10"/>
<text text-anchor="start" x="561.17" y="-15.4" font-family="Times-12" font-size="14.00"> &#160;Providers</text>
<polygon fill="#fb8072" stroke="transparent" points="633.5,-10 633.5,-30 653.5,-30 653.5,-10 633.5,-10"/>
<text text-anchor="start" x="657.23" y="-15.4" font-family="Times-12" font-size="14.00"> &#160;Exports</text>
<g id="clust1" class="cluster">
<title>cluster_CloudOptionsModule</title>
<polygon fill="none" stroke="black" stroke-dasharray="1,5" points="8,-70 8,-195 943,-195 943,-70 8,-70"/>
</g>
<g id="clust2" class="cluster">
<title>cluster_CloudOptionsModule_declarations</title>
<polygon fill="none" stroke="black" points="465,-78 465,-130 935,-130 935,-78 465,-78"/>
</g>
<g id="clust6" class="cluster">
<title>cluster_CloudOptionsModule_imports</title>
<polygon fill="none" stroke="black" points="16,-78 16,-130 457,-130 457,-78 16,-78"/>
</g>
<!-- CarsDataComponent -->
<g id="node1" class="node">
<title>CarsDataComponent</title>
<polygon fill="#ffffb3" stroke="black" points="926.92,-122 793.08,-122 793.08,-86 926.92,-86 926.92,-122"/>
<text text-anchor="middle" x="860" y="-99.8" font-family="Times,serif" font-size="14.00">CarsDataComponent</text>
</g>
<!-- CloudOptionsModule -->
<g id="node4" class="node">
<title>CloudOptionsModule</title>
<polygon fill="#8dd3c7" stroke="black" points="515.11,-187 512.11,-191 491.11,-191 488.11,-187 376.89,-187 376.89,-151 515.11,-151 515.11,-187"/>
<text text-anchor="middle" x="446" y="-164.8" font-family="Times,serif" font-size="14.00">CloudOptionsModule</text>
</g>
<!-- CarsDataComponent&#45;&gt;CloudOptionsModule -->
<g id="edge1" class="edge">
<title>CarsDataComponent&#45;&gt;CloudOptionsModule</title>
<path fill="none" stroke="black" d="M860,-122.28C860,-143.32 860,-175 860,-175 860,-175 525.29,-175 525.29,-175"/>
<polygon fill="black" stroke="black" points="525.29,-171.5 515.29,-175 525.29,-178.5 525.29,-171.5"/>
</g>
<!-- CloudOptionsComponent -->
<g id="node2" class="node">
<title>CloudOptionsComponent</title>
<polygon fill="#ffffb3" stroke="black" points="774.89,-122 615.11,-122 615.11,-86 774.89,-86 774.89,-122"/>
<text text-anchor="middle" x="695" y="-99.8" font-family="Times,serif" font-size="14.00">CloudOptionsComponent</text>
</g>
<!-- CloudOptionsComponent&#45;&gt;CloudOptionsModule -->
<g id="edge2" class="edge">
<title>CloudOptionsComponent&#45;&gt;CloudOptionsModule</title>
<path fill="none" stroke="black" d="M695,-122.02C695,-139.37 695,-163 695,-163 695,-163 525.36,-163 525.36,-163"/>
<polygon fill="black" stroke="black" points="525.36,-159.5 515.36,-163 525.36,-166.5 525.36,-159.5"/>
</g>
<!-- TabBarComponent -->
<g id="node3" class="node">
<title>TabBarComponent</title>
<polygon fill="#ffffb3" stroke="black" points="596.81,-122 473.19,-122 473.19,-86 596.81,-86 596.81,-122"/>
<text text-anchor="middle" x="535" y="-99.8" font-family="Times,serif" font-size="14.00">TabBarComponent</text>
</g>
<!-- TabBarComponent&#45;&gt;CloudOptionsModule -->
<g id="edge3" class="edge">
<title>TabBarComponent&#45;&gt;CloudOptionsModule</title>
<path fill="none" stroke="black" d="M494.2,-122.11C494.2,-122.11 494.2,-140.99 494.2,-140.99"/>
<polygon fill="black" stroke="black" points="490.7,-140.99 494.2,-150.99 497.7,-140.99 490.7,-140.99"/>
</g>
<!-- CloudOptionsRoutingModule -->
<g id="node5" class="node">
<title>CloudOptionsRoutingModule</title>
<polygon fill="#8dd3c7" stroke="black" points="448.73,-122 445.73,-126 424.73,-126 421.73,-122 265.27,-122 265.27,-86 448.73,-86 448.73,-122"/>
<text text-anchor="middle" x="357" y="-99.8" font-family="Times,serif" font-size="14.00">CloudOptionsRoutingModule</text>
</g>
<!-- CloudOptionsRoutingModule&#45;&gt;CloudOptionsModule -->
<g id="edge4" class="edge">
<title>CloudOptionsRoutingModule&#45;&gt;CloudOptionsModule</title>
<path fill="none" stroke="black" d="M412.78,-122.11C412.78,-122.11 412.78,-140.99 412.78,-140.99"/>
<polygon fill="black" stroke="black" points="409.28,-140.99 412.78,-150.99 416.28,-140.99 409.28,-140.99"/>
</g>
<!-- MaterialModule -->
<g id="node6" class="node">
<title>MaterialModule</title>
<polygon fill="#8dd3c7" stroke="black" points="247.47,-122 244.47,-126 223.47,-126 220.47,-122 140.53,-122 140.53,-86 247.47,-86 247.47,-122"/>
<text text-anchor="middle" x="194" y="-99.8" font-family="Times,serif" font-size="14.00">MaterialModule</text>
</g>
<!-- MaterialModule&#45;&gt;CloudOptionsModule -->
<g id="edge5" class="edge">
<title>MaterialModule&#45;&gt;CloudOptionsModule</title>
<path fill="none" stroke="black" d="M194,-122.02C194,-139.37 194,-163 194,-163 194,-163 366.81,-163 366.81,-163"/>
<polygon fill="black" stroke="black" points="366.81,-166.5 376.81,-163 366.81,-159.5 366.81,-166.5"/>
</g>
<!-- SharedModule -->
<g id="node7" class="node">
<title>SharedModule</title>
<polygon fill="#8dd3c7" stroke="black" points="122.42,-122 119.42,-126 98.42,-126 95.42,-122 23.58,-122 23.58,-86 122.42,-86 122.42,-122"/>
<text text-anchor="middle" x="73" y="-99.8" font-family="Times,serif" font-size="14.00">SharedModule</text>
</g>
<!-- SharedModule&#45;&gt;CloudOptionsModule -->
<g id="edge6" class="edge">
<title>SharedModule&#45;&gt;CloudOptionsModule</title>
<path fill="none" stroke="black" d="M73,-122.28C73,-143.32 73,-175 73,-175 73,-175 366.72,-175 366.72,-175"/>
<polygon fill="black" stroke="black" points="366.72,-178.5 376.72,-175 366.72,-171.5 366.72,-178.5"/>
</g>
</g>
</svg>
