<?xml version="1.0" encoding="UTF-8" standalone="no"?>
<!DOCTYPE svg PUBLIC "-//W3C//DTD SVG 1.1//EN"
 "http://www.w3.org/Graphics/SVG/1.1/DTD/svg11.dtd">
<!-- Generated by graphviz version 2.47.0 (20210316.0004)
 -->
<!-- Title: dependencies Pages: 1 -->
<svg width="948pt" height="284pt"
 viewBox="0.00 0.00 948.00 284.00" xmlns="http://www.w3.org/2000/svg" xmlns:xlink="http://www.w3.org/1999/xlink">
<g id="graph0" class="graph" transform="scale(1 1) rotate(0) translate(4 280)">
<title>dependencies</title>
<polygon fill="white" stroke="transparent" points="-4,4 -4,-280 944,-280 944,4 -4,4"/>
<text text-anchor="start" x="449.01" y="-42.4" font-family="Times-12" font-weight="bold" font-size="14.00">Legend</text>
<polygon fill="#ffffb3" stroke="transparent" points="236,-10 236,-30 256,-30 256,-10 236,-10"/>
<text text-anchor="start" x="259.63" y="-15.4" font-family="Times-12" font-size="14.00"> &#160;Declarations</text>
<polygon fill="#8dd3c7" stroke="transparent" points="349,-10 349,-30 369,-30 369,-10 349,-10"/>
<text text-anchor="start" x="372.73" y="-15.4" font-family="Times-12" font-size="14.00"> &#160;Module</text>
<polygon fill="#80b1d3" stroke="transparent" points="435,-10 435,-30 455,-30 455,-10 435,-10"/>
<text text-anchor="start" x="458.78" y="-15.4" font-family="Times-12" font-size="14.00"> &#160;Bootstrap</text>
<polygon fill="#fdb462" stroke="transparent" points="532,-10 532,-30 552,-30 552,-10 532,-10"/>
<text text-anchor="start" x="555.67" y="-15.4" font-family="Times-12" font-size="14.00"> &#160;Providers</text>
<polygon fill="#fb8072" stroke="transparent" points="628,-10 628,-30 648,-30 648,-10 628,-10"/>
<text text-anchor="start" x="651.73" y="-15.4" font-family="Times-12" font-size="14.00"> &#160;Exports</text>
<g id="clust1" class="cluster">
<title>cluster_HomeModule</title>
<polygon fill="none" stroke="black" stroke-dasharray="1,5" points="8,-70 8,-268 932,-268 932,-70 8,-70"/>
</g>
<g id="clust2" class="cluster">
<title>cluster_HomeModule_declarations</title>
<polygon fill="none" stroke="black" points="303,-78 303,-130 924,-130 924,-78 303,-78"/>
</g>
<g id="clust8" class="cluster">
<title>cluster_HomeModule_exports</title>
<polygon fill="none" stroke="black" points="380,-208 380,-260 516,-260 516,-208 380,-208"/>
</g>
<g id="clust7" class="cluster">
<title>cluster_HomeModule_imports</title>
<polygon fill="none" stroke="black" points="16,-78 16,-130 295,-130 295,-78 16,-78"/>
</g>
<!-- CarBrandsComponent -->
<g id="node1" class="node">
<title>CarBrandsComponent</title>
<polygon fill="#ffffb3" stroke="black" points="915.7,-122 774.3,-122 774.3,-86 915.7,-86 915.7,-122"/>
<text text-anchor="middle" x="845" y="-99.8" font-family="Times,serif" font-size="14.00">CarBrandsComponent</text>
</g>
<!-- HomeModule -->
<g id="node5" class="node">
<title>HomeModule</title>
<polygon fill="#8dd3c7" stroke="black" points="494.76,-187 491.76,-191 470.76,-191 467.76,-187 401.24,-187 401.24,-151 494.76,-151 494.76,-187"/>
<text text-anchor="middle" x="448" y="-164.8" font-family="Times,serif" font-size="14.00">HomeModule</text>
</g>
<!-- CarBrandsComponent&#45;&gt;HomeModule -->
<g id="edge1" class="edge">
<title>CarBrandsComponent&#45;&gt;HomeModule</title>
<path fill="none" stroke="black" d="M845,-122.28C845,-143.32 845,-175 845,-175 845,-175 505.1,-175 505.1,-175"/>
<polygon fill="black" stroke="black" points="505.1,-171.5 495.1,-175 505.1,-178.5 505.1,-171.5"/>
</g>
<!-- CarsListComponent -->
<g id="node2" class="node">
<title>CarsListComponent</title>
<polygon fill="#ffffb3" stroke="black" points="756.27,-122 627.73,-122 627.73,-86 756.27,-86 756.27,-122"/>
<text text-anchor="middle" x="692" y="-99.8" font-family="Times,serif" font-size="14.00">CarsListComponent</text>
</g>
<!-- CarsListComponent&#45;&gt;HomeModule -->
<g id="edge2" class="edge">
<title>CarsListComponent&#45;&gt;HomeModule</title>
<path fill="none" stroke="black" d="M692,-122.02C692,-139.37 692,-163 692,-163 692,-163 505.05,-163 505.05,-163"/>
<polygon fill="black" stroke="black" points="505.05,-159.5 495.05,-163 505.05,-166.5 505.05,-159.5"/>
</g>
<!-- DataNotFoundComponent -->
<g id="node3" class="node">
<title>DataNotFoundComponent</title>
<polygon fill="#ffffb3" stroke="black" points="609.04,-122 444.96,-122 444.96,-86 609.04,-86 609.04,-122"/>
<text text-anchor="middle" x="527" y="-99.8" font-family="Times,serif" font-size="14.00">DataNotFoundComponent</text>
</g>
<!-- DataNotFoundComponent&#45;&gt;HomeModule -->
<g id="edge3" class="edge">
<title>DataNotFoundComponent&#45;&gt;HomeModule</title>
<path fill="none" stroke="black" d="M469.81,-122.11C469.81,-122.11 469.81,-140.99 469.81,-140.99"/>
<polygon fill="black" stroke="black" points="466.31,-140.99 469.81,-150.99 473.31,-140.99 466.31,-140.99"/>
</g>
<!-- HomeComponent -->
<g id="node4" class="node">
<title>HomeComponent</title>
<polygon fill="#ffffb3" stroke="black" points="426.55,-122 311.45,-122 311.45,-86 426.55,-86 426.55,-122"/>
<text text-anchor="middle" x="369" y="-99.8" font-family="Times,serif" font-size="14.00">HomeComponent</text>
</g>
<!-- HomeComponent&#45;&gt;HomeModule -->
<g id="edge4" class="edge">
<title>HomeComponent&#45;&gt;HomeModule</title>
<path fill="none" stroke="black" d="M413.95,-122.11C413.95,-122.11 413.95,-140.99 413.95,-140.99"/>
<polygon fill="black" stroke="black" points="410.45,-140.99 413.95,-150.99 417.45,-140.99 410.45,-140.99"/>
</g>
<!-- HomeComponent  -->
<g id="node8" class="node">
<title>HomeComponent </title>
<polygon fill="#fb8072" stroke="black" points="507.54,-252 388.46,-252 388.46,-216 507.54,-216 507.54,-252"/>
<text text-anchor="middle" x="448" y="-229.8" font-family="Times,serif" font-size="14.00">HomeComponent </text>
</g>
<!-- HomeModule&#45;&gt;HomeComponent  -->
<g id="edge7" class="edge">
<title>HomeModule&#45;&gt;HomeComponent </title>
<path fill="none" stroke="black" stroke-dasharray="5,2" d="M448,-187.11C448,-187.11 448,-205.99 448,-205.99"/>
<polygon fill="black" stroke="black" points="444.5,-205.99 448,-215.99 451.5,-205.99 444.5,-205.99"/>
</g>
<!-- HomeRoutingModule -->
<g id="node6" class="node">
<title>HomeRoutingModule</title>
<polygon fill="#8dd3c7" stroke="black" points="287.38,-122 284.38,-126 263.38,-126 260.38,-122 148.62,-122 148.62,-86 287.38,-86 287.38,-122"/>
<text text-anchor="middle" x="218" y="-99.8" font-family="Times,serif" font-size="14.00">HomeRoutingModule</text>
</g>
<!-- HomeRoutingModule&#45;&gt;HomeModule -->
<g id="edge5" class="edge">
<title>HomeRoutingModule&#45;&gt;HomeModule</title>
<path fill="none" stroke="black" d="M218,-122.02C218,-139.37 218,-163 218,-163 218,-163 391.18,-163 391.18,-163"/>
<polygon fill="black" stroke="black" points="391.18,-166.5 401.18,-163 391.18,-159.5 391.18,-166.5"/>
</g>
<!-- MaterialModule -->
<g id="node7" class="node">
<title>MaterialModule</title>
<polygon fill="#8dd3c7" stroke="black" points="130.47,-122 127.47,-126 106.47,-126 103.47,-122 23.53,-122 23.53,-86 130.47,-86 130.47,-122"/>
<text text-anchor="middle" x="77" y="-99.8" font-family="Times,serif" font-size="14.00">MaterialModule</text>
</g>
<!-- MaterialModule&#45;&gt;HomeModule -->
<g id="edge6" class="edge">
<title>MaterialModule&#45;&gt;HomeModule</title>
<path fill="none" stroke="black" d="M77,-122.28C77,-143.32 77,-175 77,-175 77,-175 391.01,-175 391.01,-175"/>
<polygon fill="black" stroke="black" points="391.01,-178.5 401.01,-175 391.01,-171.5 391.01,-178.5"/>
</g>
</g>
</svg>
