<?xml version="1.0" encoding="UTF-8" standalone="no"?>
<!DOCTYPE svg PUBLIC "-//W3C//DTD SVG 1.1//EN"
 "http://www.w3.org/Graphics/SVG/1.1/DTD/svg11.dtd">
<!-- Generated by graphviz version 2.47.0 (20210316.0004)
 -->
<!-- Title: dependencies Pages: 1 -->
<svg width="1611pt" height="284pt"
 viewBox="0.00 0.00 1611.00 284.00" xmlns="http://www.w3.org/2000/svg" xmlns:xlink="http://www.w3.org/1999/xlink">
<g id="graph0" class="graph" transform="scale(1 1) rotate(0) translate(4 280)">
<title>dependencies</title>
<polygon fill="white" stroke="transparent" points="-4,4 -4,-280 1607,-280 1607,4 -4,4"/>
<text text-anchor="start" x="780.51" y="-42.4" font-family="Times-12" font-weight="bold" font-size="14.00">Legend</text>
<polygon fill="#ffffb3" stroke="transparent" points="567.5,-10 567.5,-30 587.5,-30 587.5,-10 567.5,-10"/>
<text text-anchor="start" x="591.13" y="-15.4" font-family="Times-12" font-size="14.00"> &#160;Declarations</text>
<polygon fill="#8dd3c7" stroke="transparent" points="680.5,-10 680.5,-30 700.5,-30 700.5,-10 680.5,-10"/>
<text text-anchor="start" x="704.23" y="-15.4" font-family="Times-12" font-size="14.00"> &#160;Module</text>
<polygon fill="#80b1d3" stroke="transparent" points="766.5,-10 766.5,-30 786.5,-30 786.5,-10 766.5,-10"/>
<text text-anchor="start" x="790.28" y="-15.4" font-family="Times-12" font-size="14.00"> &#160;Bootstrap</text>
<polygon fill="#fdb462" stroke="transparent" points="863.5,-10 863.5,-30 883.5,-30 883.5,-10 863.5,-10"/>
<text text-anchor="start" x="887.17" y="-15.4" font-family="Times-12" font-size="14.00"> &#160;Providers</text>
<polygon fill="#fb8072" stroke="transparent" points="959.5,-10 959.5,-30 979.5,-30 979.5,-10 959.5,-10"/>
<text text-anchor="start" x="983.23" y="-15.4" font-family="Times-12" font-size="14.00"> &#160;Exports</text>
<g id="clust1" class="cluster">
<title>cluster_HomeModule</title>
<polygon fill="none" stroke="black" stroke-dasharray="1,5" points="8,-70 8,-268 1595,-268 1595,-70 8,-70"/>
</g>
<g id="clust2" class="cluster">
<title>cluster_HomeModule_declarations</title>
<polygon fill="none" stroke="black" points="449,-78 449,-130 1587,-130 1587,-78 449,-78"/>
</g>
<g id="clust10" class="cluster">
<title>cluster_HomeModule_imports</title>
<polygon fill="none" stroke="black" points="16,-78 16,-130 441,-130 441,-78 16,-78"/>
</g>
<g id="clust11" class="cluster">
<title>cluster_HomeModule_exports</title>
<polygon fill="none" stroke="black" points="710,-208 710,-260 846,-260 846,-208 710,-208"/>
</g>
<!-- CarBrandsComponent -->
<g id="node1" class="node">
<title>CarBrandsComponent</title>
<polygon fill="#ffffb3" stroke="black" points="1578.7,-122 1437.3,-122 1437.3,-86 1578.7,-86 1578.7,-122"/>
<text text-anchor="middle" x="1508" y="-99.8" font-family="Times,serif" font-size="14.00">CarBrandsComponent</text>
</g>
<!-- HomeModule -->
<g id="node8" class="node">
<title>HomeModule</title>
<polygon fill="#8dd3c7" stroke="black" points="824.76,-187 821.76,-191 800.76,-191 797.76,-187 731.24,-187 731.24,-151 824.76,-151 824.76,-187"/>
<text text-anchor="middle" x="778" y="-164.8" font-family="Times,serif" font-size="14.00">HomeModule</text>
</g>
<!-- CarBrandsComponent&#45;&gt;HomeModule -->
<g id="edge1" class="edge">
<title>CarBrandsComponent&#45;&gt;HomeModule</title>
<path fill="none" stroke="black" d="M1508,-122.01C1508,-144.49 1508,-180 1508,-180 1508,-180 834.78,-180 834.78,-180"/>
<polygon fill="black" stroke="black" points="834.78,-176.5 824.78,-180 834.78,-183.5 834.78,-176.5"/>
</g>
<!-- CarsListComponent -->
<g id="node2" class="node">
<title>CarsListComponent</title>
<polygon fill="#ffffb3" stroke="black" points="1419.27,-122 1290.73,-122 1290.73,-86 1419.27,-86 1419.27,-122"/>
<text text-anchor="middle" x="1355" y="-99.8" font-family="Times,serif" font-size="14.00">CarsListComponent</text>
</g>
<!-- CarsListComponent&#45;&gt;HomeModule -->
<g id="edge2" class="edge">
<title>CarsListComponent&#45;&gt;HomeModule</title>
<path fill="none" stroke="black" d="M1355,-122.13C1355,-142.57 1355,-173 1355,-173 1355,-173 835.22,-173 835.22,-173"/>
<polygon fill="black" stroke="black" points="835.22,-169.5 825.22,-173 835.22,-176.5 835.22,-169.5"/>
</g>
<!-- CarsdataCardComponent -->
<g id="node3" class="node">
<title>CarsdataCardComponent</title>
<polygon fill="#ffffb3" stroke="black" points="1272.52,-122 1115.48,-122 1115.48,-86 1272.52,-86 1272.52,-122"/>
<text text-anchor="middle" x="1194" y="-99.8" font-family="Times,serif" font-size="14.00">CarsdataCardComponent</text>
</g>
<!-- CarsdataCardComponent&#45;&gt;HomeModule -->
<g id="edge3" class="edge">
<title>CarsdataCardComponent&#45;&gt;HomeModule</title>
<path fill="none" stroke="black" d="M1194,-122.27C1194,-140.56 1194,-166 1194,-166 1194,-166 834.91,-166 834.91,-166"/>
<polygon fill="black" stroke="black" points="834.91,-162.5 824.91,-166 834.91,-169.5 834.91,-162.5"/>
</g>
<!-- DataNotFoundComponent -->
<g id="node4" class="node">
<title>DataNotFoundComponent</title>
<polygon fill="#ffffb3" stroke="black" points="1097.04,-122 932.96,-122 932.96,-86 1097.04,-86 1097.04,-122"/>
<text text-anchor="middle" x="1015" y="-99.8" font-family="Times,serif" font-size="14.00">DataNotFoundComponent</text>
</g>
<!-- DataNotFoundComponent&#45;&gt;HomeModule -->
<g id="edge4" class="edge">
<title>DataNotFoundComponent&#45;&gt;HomeModule</title>
<path fill="none" stroke="black" d="M1015,-122.01C1015,-138.05 1015,-159 1015,-159 1015,-159 834.82,-159 834.82,-159"/>
<polygon fill="black" stroke="black" points="834.82,-155.5 824.82,-159 834.82,-162.5 834.82,-155.5"/>
</g>
<!-- HomeComponent -->
<g id="node5" class="node">
<title>HomeComponent</title>
<polygon fill="#ffffb3" stroke="black" points="914.55,-122 799.45,-122 799.45,-86 914.55,-86 914.55,-122"/>
<text text-anchor="middle" x="857" y="-99.8" font-family="Times,serif" font-size="14.00">HomeComponent</text>
</g>
<!-- HomeComponent&#45;&gt;HomeModule -->
<g id="edge5" class="edge">
<title>HomeComponent&#45;&gt;HomeModule</title>
<path fill="none" stroke="black" d="M812.05,-122.11C812.05,-122.11 812.05,-140.99 812.05,-140.99"/>
<polygon fill="black" stroke="black" points="808.55,-140.99 812.05,-150.99 815.55,-140.99 808.55,-140.99"/>
</g>
<!-- PageNotFoundComponent -->
<g id="node6" class="node">
<title>PageNotFoundComponent</title>
<polygon fill="#ffffb3" stroke="black" points="781.82,-122 616.18,-122 616.18,-86 781.82,-86 781.82,-122"/>
<text text-anchor="middle" x="699" y="-99.8" font-family="Times,serif" font-size="14.00">PageNotFoundComponent</text>
</g>
<!-- PageNotFoundComponent&#45;&gt;HomeModule -->
<g id="edge6" class="edge">
<title>PageNotFoundComponent&#45;&gt;HomeModule</title>
<path fill="none" stroke="black" d="M756.39,-122.11C756.39,-122.11 756.39,-140.99 756.39,-140.99"/>
<polygon fill="black" stroke="black" points="752.89,-140.99 756.39,-150.99 759.89,-140.99 752.89,-140.99"/>
</g>
<!-- PaginationComponent -->
<g id="node7" class="node">
<title>PaginationComponent</title>
<polygon fill="#ffffb3" stroke="black" points="598.72,-122 457.28,-122 457.28,-86 598.72,-86 598.72,-122"/>
<text text-anchor="middle" x="528" y="-99.8" font-family="Times,serif" font-size="14.00">PaginationComponent</text>
</g>
<!-- PaginationComponent&#45;&gt;HomeModule -->
<g id="edge7" class="edge">
<title>PaginationComponent&#45;&gt;HomeModule</title>
<path fill="none" stroke="black" d="M528,-122.01C528,-138.05 528,-159 528,-159 528,-159 720.98,-159 720.98,-159"/>
<polygon fill="black" stroke="black" points="720.98,-162.5 730.98,-159 720.98,-155.5 720.98,-162.5"/>
</g>
<!-- HomeComponent  -->
<g id="node12" class="node">
<title>HomeComponent </title>
<polygon fill="#fb8072" stroke="black" points="837.54,-252 718.46,-252 718.46,-216 837.54,-216 837.54,-252"/>
<text text-anchor="middle" x="778" y="-229.8" font-family="Times,serif" font-size="14.00">HomeComponent </text>
</g>
<!-- HomeModule&#45;&gt;HomeComponent  -->
<g id="edge11" class="edge">
<title>HomeModule&#45;&gt;HomeComponent </title>
<path fill="none" stroke="black" stroke-dasharray="5,2" d="M778,-187.11C778,-187.11 778,-205.99 778,-205.99"/>
<polygon fill="black" stroke="black" points="774.5,-205.99 778,-215.99 781.5,-205.99 774.5,-205.99"/>
</g>
<!-- HomeRoutingModule -->
<g id="node9" class="node">
<title>HomeRoutingModule</title>
<polygon fill="#8dd3c7" stroke="black" points="433.38,-122 430.38,-126 409.38,-126 406.38,-122 294.62,-122 294.62,-86 433.38,-86 433.38,-122"/>
<text text-anchor="middle" x="364" y="-99.8" font-family="Times,serif" font-size="14.00">HomeRoutingModule</text>
</g>
<!-- HomeRoutingModule&#45;&gt;HomeModule -->
<g id="edge8" class="edge">
<title>HomeRoutingModule&#45;&gt;HomeModule</title>
<path fill="none" stroke="black" d="M364,-122.27C364,-140.56 364,-166 364,-166 364,-166 720.91,-166 720.91,-166"/>
<polygon fill="black" stroke="black" points="720.91,-169.5 730.91,-166 720.91,-162.5 720.91,-169.5"/>
</g>
<!-- MaterialModule -->
<g id="node10" class="node">
<title>MaterialModule</title>
<polygon fill="#8dd3c7" stroke="black" points="276.47,-122 273.47,-126 252.47,-126 249.47,-122 169.53,-122 169.53,-86 276.47,-86 276.47,-122"/>
<text text-anchor="middle" x="223" y="-99.8" font-family="Times,serif" font-size="14.00">MaterialModule</text>
</g>
<!-- MaterialModule&#45;&gt;HomeModule -->
<g id="edge9" class="edge">
<title>MaterialModule&#45;&gt;HomeModule</title>
<path fill="none" stroke="black" d="M223,-122.13C223,-142.57 223,-173 223,-173 223,-173 721.16,-173 721.16,-173"/>
<polygon fill="black" stroke="black" points="721.16,-176.5 731.16,-173 721.16,-169.5 721.16,-176.5"/>
</g>
<!-- NgOptimizedImage -->
<g id="node11" class="node">
<title>NgOptimizedImage</title>
<polygon fill="#8dd3c7" stroke="black" points="151.69,-122 148.69,-126 127.69,-126 124.69,-122 24.31,-122 24.31,-86 151.69,-86 151.69,-122"/>
<text text-anchor="middle" x="88" y="-99.8" font-family="Times,serif" font-size="14.00">NgOptimizedImage</text>
</g>
<!-- NgOptimizedImage&#45;&gt;HomeModule -->
<g id="edge10" class="edge">
<title>NgOptimizedImage&#45;&gt;HomeModule</title>
<path fill="none" stroke="black" d="M88,-122.01C88,-144.49 88,-180 88,-180 88,-180 721.12,-180 721.12,-180"/>
<polygon fill="black" stroke="black" points="721.12,-183.5 731.12,-180 721.12,-176.5 721.12,-183.5"/>
</g>
</g>
</svg>
