<?xml version="1.0" encoding="UTF-8" standalone="no"?>
<!DOCTYPE svg PUBLIC "-//W3C//DTD SVG 1.1//EN"
 "http://www.w3.org/Graphics/SVG/1.1/DTD/svg11.dtd">
<!-- Generated by graphviz version 2.47.0 (20210316.0004)
 -->
<!-- Title: dependencies Pages: 1 -->
<svg width="1909pt" height="284pt"
 viewBox="0.00 0.00 1909.00 284.00" xmlns="http://www.w3.org/2000/svg" xmlns:xlink="http://www.w3.org/1999/xlink">
<g id="graph0" class="graph" transform="scale(1 1) rotate(0) translate(4 280)">
<title>dependencies</title>
<polygon fill="white" stroke="transparent" points="-4,4 -4,-280 1905,-280 1905,4 -4,4"/>
<text text-anchor="start" x="929.51" y="-42.4" font-family="Times-12" font-weight="bold" font-size="14.00">Legend</text>
<polygon fill="#ffffb3" stroke="transparent" points="716.5,-10 716.5,-30 736.5,-30 736.5,-10 716.5,-10"/>
<text text-anchor="start" x="740.13" y="-15.4" font-family="Times-12" font-size="14.00"> &#160;Declarations</text>
<polygon fill="#8dd3c7" stroke="transparent" points="829.5,-10 829.5,-30 849.5,-30 849.5,-10 829.5,-10"/>
<text text-anchor="start" x="853.23" y="-15.4" font-family="Times-12" font-size="14.00"> &#160;Module</text>
<polygon fill="#80b1d3" stroke="transparent" points="915.5,-10 915.5,-30 935.5,-30 935.5,-10 915.5,-10"/>
<text text-anchor="start" x="939.28" y="-15.4" font-family="Times-12" font-size="14.00"> &#160;Bootstrap</text>
<polygon fill="#fdb462" stroke="transparent" points="1012.5,-10 1012.5,-30 1032.5,-30 1032.5,-10 1012.5,-10"/>
<text text-anchor="start" x="1036.17" y="-15.4" font-family="Times-12" font-size="14.00"> &#160;Providers</text>
<polygon fill="#fb8072" stroke="transparent" points="1108.5,-10 1108.5,-30 1128.5,-30 1128.5,-10 1108.5,-10"/>
<text text-anchor="start" x="1132.23" y="-15.4" font-family="Times-12" font-size="14.00"> &#160;Exports</text>
<g id="clust1" class="cluster">
<title>cluster_AppModule</title>
<polygon fill="none" stroke="black" stroke-dasharray="1,5" points="8,-70 8,-268 423,-268 423,-70 8,-70"/>
</g>
<g id="clust2" class="cluster">
<title>cluster_AppModule_declarations</title>
<polygon fill="none" stroke="black" points="16,-78 16,-130 138,-130 138,-78 16,-78"/>
</g>
<g id="clust4" class="cluster">
<title>cluster_AppModule_imports</title>
<polygon fill="none" stroke="black" points="146,-78 146,-130 415,-130 415,-78 146,-78"/>
</g>
<g id="clust6" class="cluster">
<title>cluster_AppModule_bootstrap</title>
<polygon fill="none" stroke="black" points="156,-208 156,-260 280,-260 280,-208 156,-208"/>
</g>
<g id="clust14" class="cluster">
<title>cluster_HomeModule</title>
<polygon fill="none" stroke="black" stroke-dasharray="1,5" points="431,-70 431,-268 1893,-268 1893,-70 431,-70"/>
</g>
<g id="clust15" class="cluster">
<title>cluster_HomeModule_declarations</title>
<polygon fill="none" stroke="black" points="747,-78 747,-130 1885,-130 1885,-78 747,-78"/>
</g>
<g id="clust23" class="cluster">
<title>cluster_HomeModule_imports</title>
<polygon fill="none" stroke="black" points="439,-78 439,-130 739,-130 739,-78 439,-78"/>
</g>
<g id="clust24" class="cluster">
<title>cluster_HomeModule_exports</title>
<polygon fill="none" stroke="black" points="1008,-208 1008,-260 1144,-260 1144,-208 1008,-208"/>
</g>
<!-- AppComponent -->
<g id="node1" class="node">
<title>AppComponent</title>
<polygon fill="#ffffb3" stroke="black" points="129.94,-122 24.06,-122 24.06,-86 129.94,-86 129.94,-122"/>
<text text-anchor="middle" x="77" y="-99.8" font-family="Times,serif" font-size="14.00">AppComponent</text>
</g>
<!-- AppModule -->
<g id="node2" class="node">
<title>AppModule</title>
<polygon fill="#8dd3c7" stroke="black" points="259.66,-187 256.66,-191 235.66,-191 232.66,-187 176.34,-187 176.34,-151 259.66,-151 259.66,-187"/>
<text text-anchor="middle" x="218" y="-164.8" font-family="Times,serif" font-size="14.00">AppModule</text>
</g>
<!-- AppComponent&#45;&gt;AppModule -->
<g id="edge1" class="edge">
<title>AppComponent&#45;&gt;AppModule</title>
<path fill="none" stroke="black" d="M77,-122.11C77,-141.34 77,-169 77,-169 77,-169 166.08,-169 166.08,-169"/>
<polygon fill="black" stroke="black" points="166.08,-172.5 176.08,-169 166.08,-165.5 166.08,-172.5"/>
</g>
<!-- AppComponent  -->
<g id="node5" class="node">
<title>AppComponent </title>
<polygon fill="#80b1d3" stroke="black" points="272.44,-252 163.56,-252 163.56,-216 272.44,-216 272.44,-252"/>
<text text-anchor="middle" x="218" y="-229.8" font-family="Times,serif" font-size="14.00">AppComponent </text>
</g>
<!-- AppModule&#45;&gt;AppComponent  -->
<g id="edge4" class="edge">
<title>AppModule&#45;&gt;AppComponent </title>
<path fill="none" stroke="black" stroke-dasharray="1,5" d="M218,-187.11C218,-187.11 218,-205.99 218,-205.99"/>
<polygon fill="black" stroke="black" points="214.5,-205.99 218,-215.99 221.5,-205.99 214.5,-205.99"/>
</g>
<!-- AppRoutingModule -->
<g id="node3" class="node">
<title>AppRoutingModule</title>
<polygon fill="#8dd3c7" stroke="black" points="282.27,-122 279.27,-126 258.27,-126 255.27,-122 153.73,-122 153.73,-86 282.27,-86 282.27,-122"/>
<text text-anchor="middle" x="218" y="-99.8" font-family="Times,serif" font-size="14.00">AppRoutingModule</text>
</g>
<!-- AppRoutingModule&#45;&gt;AppModule -->
<g id="edge2" class="edge">
<title>AppRoutingModule&#45;&gt;AppModule</title>
<path fill="none" stroke="black" d="M218,-122.11C218,-122.11 218,-140.99 218,-140.99"/>
<polygon fill="black" stroke="black" points="214.5,-140.99 218,-150.99 221.5,-140.99 214.5,-140.99"/>
</g>
<!-- MaterialModule -->
<g id="node4" class="node">
<title>MaterialModule</title>
<polygon fill="#8dd3c7" stroke="black" points="407.47,-122 404.47,-126 383.47,-126 380.47,-122 300.53,-122 300.53,-86 407.47,-86 407.47,-122"/>
<text text-anchor="middle" x="354" y="-99.8" font-family="Times,serif" font-size="14.00">MaterialModule</text>
</g>
<!-- MaterialModule&#45;&gt;AppModule -->
<g id="edge3" class="edge">
<title>MaterialModule&#45;&gt;AppModule</title>
<path fill="none" stroke="black" d="M336.17,-122.25C336.17,-145.02 336.17,-181 336.17,-181 336.17,-181 269.66,-181 269.66,-181"/>
<polygon fill="black" stroke="black" points="269.66,-177.5 259.66,-181 269.66,-184.5 269.66,-177.5"/>
</g>
<!-- HomeModule -->
<g id="node13" class="node">
<title>HomeModule</title>
<polygon fill="#8dd3c7" stroke="black" points="1122.76,-187 1119.76,-191 1098.76,-191 1095.76,-187 1029.24,-187 1029.24,-151 1122.76,-151 1122.76,-187"/>
<text text-anchor="middle" x="1076" y="-164.8" font-family="Times,serif" font-size="14.00">HomeModule</text>
</g>
<!-- MaterialModule&#45;&gt;HomeModule -->
<g id="edge13" class="edge">
<title>MaterialModule&#45;&gt;HomeModule</title>
<path fill="none" stroke="black" d="M371.83,-122.28C371.83,-143.32 371.83,-175 371.83,-175 371.83,-175 1018.98,-175 1018.98,-175"/>
<polygon fill="black" stroke="black" points="1018.98,-178.5 1028.98,-175 1018.98,-171.5 1018.98,-178.5"/>
</g>
<!-- CarBrandsComponent -->
<g id="node6" class="node">
<title>CarBrandsComponent</title>
<polygon fill="#ffffb3" stroke="black" points="1876.7,-122 1735.3,-122 1735.3,-86 1876.7,-86 1876.7,-122"/>
<text text-anchor="middle" x="1806" y="-99.8" font-family="Times,serif" font-size="14.00">CarBrandsComponent</text>
</g>
<!-- CarBrandsComponent&#45;&gt;HomeModule -->
<g id="edge5" class="edge">
<title>CarBrandsComponent&#45;&gt;HomeModule</title>
<path fill="none" stroke="black" d="M1806,-122.01C1806,-144.49 1806,-180 1806,-180 1806,-180 1132.78,-180 1132.78,-180"/>
<polygon fill="black" stroke="black" points="1132.78,-176.5 1122.78,-180 1132.78,-183.5 1132.78,-176.5"/>
</g>
<!-- CarsListComponent -->
<g id="node7" class="node">
<title>CarsListComponent</title>
<polygon fill="#ffffb3" stroke="black" points="1717.27,-122 1588.73,-122 1588.73,-86 1717.27,-86 1717.27,-122"/>
<text text-anchor="middle" x="1653" y="-99.8" font-family="Times,serif" font-size="14.00">CarsListComponent</text>
</g>
<!-- CarsListComponent&#45;&gt;HomeModule -->
<g id="edge6" class="edge">
<title>CarsListComponent&#45;&gt;HomeModule</title>
<path fill="none" stroke="black" d="M1653,-122.13C1653,-142.57 1653,-173 1653,-173 1653,-173 1133.22,-173 1133.22,-173"/>
<polygon fill="black" stroke="black" points="1133.22,-169.5 1123.22,-173 1133.22,-176.5 1133.22,-169.5"/>
</g>
<!-- CarsdataCardComponent -->
<g id="node8" class="node">
<title>CarsdataCardComponent</title>
<polygon fill="#ffffb3" stroke="black" points="1570.52,-122 1413.48,-122 1413.48,-86 1570.52,-86 1570.52,-122"/>
<text text-anchor="middle" x="1492" y="-99.8" font-family="Times,serif" font-size="14.00">CarsdataCardComponent</text>
</g>
<!-- CarsdataCardComponent&#45;&gt;HomeModule -->
<g id="edge7" class="edge">
<title>CarsdataCardComponent&#45;&gt;HomeModule</title>
<path fill="none" stroke="black" d="M1492,-122.27C1492,-140.56 1492,-166 1492,-166 1492,-166 1132.91,-166 1132.91,-166"/>
<polygon fill="black" stroke="black" points="1132.91,-162.5 1122.91,-166 1132.91,-169.5 1132.91,-162.5"/>
</g>
<!-- DataNotFoundComponent -->
<g id="node9" class="node">
<title>DataNotFoundComponent</title>
<polygon fill="#ffffb3" stroke="black" points="1395.04,-122 1230.96,-122 1230.96,-86 1395.04,-86 1395.04,-122"/>
<text text-anchor="middle" x="1313" y="-99.8" font-family="Times,serif" font-size="14.00">DataNotFoundComponent</text>
</g>
<!-- DataNotFoundComponent&#45;&gt;HomeModule -->
<g id="edge8" class="edge">
<title>DataNotFoundComponent&#45;&gt;HomeModule</title>
<path fill="none" stroke="black" d="M1313,-122.01C1313,-138.05 1313,-159 1313,-159 1313,-159 1132.82,-159 1132.82,-159"/>
<polygon fill="black" stroke="black" points="1132.82,-155.5 1122.82,-159 1132.82,-162.5 1132.82,-155.5"/>
</g>
<!-- HomeComponent -->
<g id="node10" class="node">
<title>HomeComponent</title>
<polygon fill="#ffffb3" stroke="black" points="1212.55,-122 1097.45,-122 1097.45,-86 1212.55,-86 1212.55,-122"/>
<text text-anchor="middle" x="1155" y="-99.8" font-family="Times,serif" font-size="14.00">HomeComponent</text>
</g>
<!-- HomeComponent&#45;&gt;HomeModule -->
<g id="edge9" class="edge">
<title>HomeComponent&#45;&gt;HomeModule</title>
<path fill="none" stroke="black" d="M1110.05,-122.11C1110.05,-122.11 1110.05,-140.99 1110.05,-140.99"/>
<polygon fill="black" stroke="black" points="1106.55,-140.99 1110.05,-150.99 1113.55,-140.99 1106.55,-140.99"/>
</g>
<!-- PageNotFoundComponent -->
<g id="node11" class="node">
<title>PageNotFoundComponent</title>
<polygon fill="#ffffb3" stroke="black" points="1079.82,-122 914.18,-122 914.18,-86 1079.82,-86 1079.82,-122"/>
<text text-anchor="middle" x="997" y="-99.8" font-family="Times,serif" font-size="14.00">PageNotFoundComponent</text>
</g>
<!-- PageNotFoundComponent&#45;&gt;HomeModule -->
<g id="edge10" class="edge">
<title>PageNotFoundComponent&#45;&gt;HomeModule</title>
<path fill="none" stroke="black" d="M1054.39,-122.11C1054.39,-122.11 1054.39,-140.99 1054.39,-140.99"/>
<polygon fill="black" stroke="black" points="1050.89,-140.99 1054.39,-150.99 1057.89,-140.99 1050.89,-140.99"/>
</g>
<!-- PaginationComponent -->
<g id="node12" class="node">
<title>PaginationComponent</title>
<polygon fill="#ffffb3" stroke="black" points="896.72,-122 755.28,-122 755.28,-86 896.72,-86 896.72,-122"/>
<text text-anchor="middle" x="826" y="-99.8" font-family="Times,serif" font-size="14.00">PaginationComponent</text>
</g>
<!-- PaginationComponent&#45;&gt;HomeModule -->
<g id="edge11" class="edge">
<title>PaginationComponent&#45;&gt;HomeModule</title>
<path fill="none" stroke="black" d="M826,-122.24C826,-137.57 826,-157 826,-157 826,-157 1018.98,-157 1018.98,-157"/>
<polygon fill="black" stroke="black" points="1018.98,-160.5 1028.98,-157 1018.98,-153.5 1018.98,-160.5"/>
</g>
<!-- HomeComponent  -->
<g id="node16" class="node">
<title>HomeComponent </title>
<polygon fill="#fb8072" stroke="black" points="1135.54,-252 1016.46,-252 1016.46,-216 1135.54,-216 1135.54,-252"/>
<text text-anchor="middle" x="1076" y="-229.8" font-family="Times,serif" font-size="14.00">HomeComponent </text>
</g>
<!-- HomeModule&#45;&gt;HomeComponent  -->
<g id="edge15" class="edge">
<title>HomeModule&#45;&gt;HomeComponent </title>
<path fill="none" stroke="black" stroke-dasharray="5,2" d="M1076,-187.11C1076,-187.11 1076,-205.99 1076,-205.99"/>
<polygon fill="black" stroke="black" points="1072.5,-205.99 1076,-215.99 1079.5,-205.99 1072.5,-205.99"/>
</g>
<!-- HomeRoutingModule -->
<g id="node14" class="node">
<title>HomeRoutingModule</title>
<polygon fill="#8dd3c7" stroke="black" points="731.38,-122 728.38,-126 707.38,-126 704.38,-122 592.62,-122 592.62,-86 731.38,-86 731.38,-122"/>
<text text-anchor="middle" x="662" y="-99.8" font-family="Times,serif" font-size="14.00">HomeRoutingModule</text>
</g>
<!-- HomeRoutingModule&#45;&gt;HomeModule -->
<g id="edge12" class="edge">
<title>HomeRoutingModule&#45;&gt;HomeModule</title>
<path fill="none" stroke="black" d="M662,-122.02C662,-139.37 662,-163 662,-163 662,-163 1018.91,-163 1018.91,-163"/>
<polygon fill="black" stroke="black" points="1018.91,-166.5 1028.91,-163 1018.91,-159.5 1018.91,-166.5"/>
</g>
<!-- NgOptimizedImage -->
<g id="node15" class="node">
<title>NgOptimizedImage</title>
<polygon fill="#8dd3c7" stroke="black" points="574.69,-122 571.69,-126 550.69,-126 547.69,-122 447.31,-122 447.31,-86 574.69,-86 574.69,-122"/>
<text text-anchor="middle" x="511" y="-99.8" font-family="Times,serif" font-size="14.00">NgOptimizedImage</text>
</g>
<!-- NgOptimizedImage&#45;&gt;HomeModule -->
<g id="edge14" class="edge">
<title>NgOptimizedImage&#45;&gt;HomeModule</title>
<path fill="none" stroke="black" d="M511,-122.11C511,-141.34 511,-169 511,-169 511,-169 1018.8,-169 1018.8,-169"/>
<polygon fill="black" stroke="black" points="1018.8,-172.5 1028.8,-169 1018.8,-165.5 1018.8,-172.5"/>
</g>
</g>
</svg>
