<?xml version="1.0" encoding="UTF-8" standalone="no"?>
<!DOCTYPE svg PUBLIC "-//W3C//DTD SVG 1.1//EN"
 "http://www.w3.org/Graphics/SVG/1.1/DTD/svg11.dtd">
<!-- Generated by graphviz version 2.47.0 (20210316.0004)
 -->
<!-- Title: dependencies Pages: 1 -->
<svg width="1573pt" height="352pt"
 viewBox="0.00 0.00 1573.00 352.00" xmlns="http://www.w3.org/2000/svg" xmlns:xlink="http://www.w3.org/1999/xlink">
<g id="graph0" class="graph" transform="scale(1 1) rotate(0) translate(4 348)">
<title>dependencies</title>
<polygon fill="white" stroke="transparent" points="-4,4 -4,-348 1569,-348 1569,4 -4,4"/>
<text text-anchor="start" x="761.51" y="-42.4" font-family="Times-12" font-weight="bold" font-size="14.00">Legend</text>
<polygon fill="#ffffb3" stroke="transparent" points="548.5,-10 548.5,-30 568.5,-30 568.5,-10 548.5,-10"/>
<text text-anchor="start" x="572.13" y="-15.4" font-family="Times-12" font-size="14.00"> &#160;Declarations</text>
<polygon fill="#8dd3c7" stroke="transparent" points="661.5,-10 661.5,-30 681.5,-30 681.5,-10 661.5,-10"/>
<text text-anchor="start" x="685.23" y="-15.4" font-family="Times-12" font-size="14.00"> &#160;Module</text>
<polygon fill="#80b1d3" stroke="transparent" points="747.5,-10 747.5,-30 767.5,-30 767.5,-10 747.5,-10"/>
<text text-anchor="start" x="771.28" y="-15.4" font-family="Times-12" font-size="14.00"> &#160;Bootstrap</text>
<polygon fill="#fdb462" stroke="transparent" points="844.5,-10 844.5,-30 864.5,-30 864.5,-10 844.5,-10"/>
<text text-anchor="start" x="868.17" y="-15.4" font-family="Times-12" font-size="14.00"> &#160;Providers</text>
<polygon fill="#fb8072" stroke="transparent" points="940.5,-10 940.5,-30 960.5,-30 960.5,-10 940.5,-10"/>
<text text-anchor="start" x="964.23" y="-15.4" font-family="Times-12" font-size="14.00"> &#160;Exports</text>
<g id="clust1" class="cluster">
<title>cluster_AppModule</title>
<polygon fill="none" stroke="black" stroke-dasharray="1,5" points="8,-70 8,-336 423,-336 423,-70 8,-70"/>
</g>
<g id="clust2" class="cluster">
<title>cluster_AppModule_declarations</title>
<polygon fill="none" stroke="black" points="293,-146 293,-198 415,-198 415,-146 293,-146"/>
</g>
<g id="clust4" class="cluster">
<title>cluster_AppModule_imports</title>
<polygon fill="none" stroke="black" points="16,-78 16,-198 285,-198 285,-78 16,-78"/>
</g>
<g id="clust6" class="cluster">
<title>cluster_AppModule_bootstrap</title>
<polygon fill="none" stroke="black" points="135,-276 135,-328 259,-328 259,-276 135,-276"/>
</g>
<g id="clust14" class="cluster">
<title>cluster_HomeModule</title>
<polygon fill="none" stroke="black" stroke-dasharray="1,5" points="431,-70 431,-138 1373,-138 1373,-70 431,-70"/>
</g>
<g id="clust15" class="cluster">
<title>cluster_HomeModule_declarations</title>
<polygon fill="none" stroke="black" points="745,-78 745,-130 1365,-130 1365,-78 745,-78"/>
</g>
<g id="clust20" class="cluster">
<title>cluster_HomeModule_imports</title>
<polygon fill="none" stroke="black" points="583,-78 583,-130 737,-130 737,-78 583,-78"/>
</g>
<g id="clust21" class="cluster">
<title>cluster_HomeModule_exports</title>
<polygon fill="none" stroke="black" points="439,-78 439,-130 575,-130 575,-78 439,-78"/>
</g>
<g id="clust36" class="cluster">
<title>cluster_SharedModule</title>
<polygon fill="none" stroke="black" stroke-dasharray="1,5" points="1381,-70 1381,-198 1557,-198 1557,-70 1381,-70"/>
</g>
<g id="clust38" class="cluster">
<title>cluster_SharedModule_imports</title>
<polygon fill="none" stroke="black" points="1389,-78 1389,-130 1549,-130 1549,-78 1389,-78"/>
</g>
<!-- AppComponent -->
<g id="node1" class="node">
<title>AppComponent</title>
<polygon fill="#ffffb3" stroke="black" points="406.94,-190 301.06,-190 301.06,-154 406.94,-154 406.94,-190"/>
<text text-anchor="middle" x="354" y="-167.8" font-family="Times,serif" font-size="14.00">AppComponent</text>
</g>
<!-- AppModule -->
<g id="node2" class="node">
<title>AppModule</title>
<polygon fill="#8dd3c7" stroke="black" points="238.66,-255 235.66,-259 214.66,-259 211.66,-255 155.34,-255 155.34,-219 238.66,-219 238.66,-255"/>
<text text-anchor="middle" x="197" y="-232.8" font-family="Times,serif" font-size="14.00">AppModule</text>
</g>
<!-- AppComponent&#45;&gt;AppModule -->
<g id="edge1" class="edge">
<title>AppComponent&#45;&gt;AppModule</title>
<path fill="none" stroke="black" d="M354,-190.11C354,-209.34 354,-237 354,-237 354,-237 248.66,-237 248.66,-237"/>
<polygon fill="black" stroke="black" points="248.66,-233.5 238.66,-237 248.66,-240.5 248.66,-233.5"/>
</g>
<!-- AppComponent  -->
<g id="node6" class="node">
<title>AppComponent </title>
<polygon fill="#80b1d3" stroke="black" points="251.44,-320 142.56,-320 142.56,-284 251.44,-284 251.44,-320"/>
<text text-anchor="middle" x="197" y="-297.8" font-family="Times,serif" font-size="14.00">AppComponent </text>
</g>
<!-- AppModule&#45;&gt;AppComponent  -->
<g id="edge5" class="edge">
<title>AppModule&#45;&gt;AppComponent </title>
<path fill="none" stroke="black" stroke-dasharray="1,5" d="M197,-255.11C197,-255.11 197,-273.99 197,-273.99"/>
<polygon fill="black" stroke="black" points="193.5,-273.99 197,-283.99 200.5,-273.99 193.5,-273.99"/>
</g>
<!-- AppRoutingModule -->
<g id="node3" class="node">
<title>AppRoutingModule</title>
<polygon fill="#8dd3c7" stroke="black" points="152.27,-122 149.27,-126 128.27,-126 125.27,-122 23.73,-122 23.73,-86 152.27,-86 152.27,-122"/>
<text text-anchor="middle" x="88" y="-99.8" font-family="Times,serif" font-size="14.00">AppRoutingModule</text>
</g>
<!-- AppRoutingModule&#45;&gt;AppModule -->
<g id="edge2" class="edge">
<title>AppRoutingModule&#45;&gt;AppModule</title>
<path fill="none" stroke="black" d="M147.46,-122.21C147.46,-158.64 147.46,-237 147.46,-237 147.46,-237 148.23,-237 148.23,-237"/>
<polygon fill="black" stroke="black" points="145.2,-240.5 155.2,-237 145.2,-233.5 145.2,-240.5"/>
</g>
<!-- HomeModule -->
<g id="node4" class="node">
<title>HomeModule</title>
<polygon fill="#8dd3c7" stroke="black" points="276.76,-190 273.76,-194 252.76,-194 249.76,-190 183.24,-190 183.24,-154 276.76,-154 276.76,-190"/>
<text text-anchor="middle" x="230" y="-167.8" font-family="Times,serif" font-size="14.00">HomeModule</text>
</g>
<!-- HomeModule&#45;&gt;AppModule -->
<g id="edge3" class="edge">
<title>HomeModule&#45;&gt;AppModule</title>
<path fill="none" stroke="black" d="M210.97,-190.11C210.97,-190.11 210.97,-208.99 210.97,-208.99"/>
<polygon fill="black" stroke="black" points="207.47,-208.99 210.97,-218.99 214.47,-208.99 207.47,-208.99"/>
</g>
<!-- HomeComponent  -->
<g id="node12" class="node">
<title>HomeComponent </title>
<polygon fill="#fb8072" stroke="black" points="566.54,-122 447.46,-122 447.46,-86 566.54,-86 566.54,-122"/>
<text text-anchor="middle" x="507" y="-99.8" font-family="Times,serif" font-size="14.00">HomeComponent </text>
</g>
<!-- HomeModule&#45;&gt;HomeComponent  -->
<g id="edge12" class="edge">
<title>HomeModule&#45;&gt;HomeComponent </title>
<path fill="none" stroke="black" stroke-dasharray="5,2" d="M276.79,-172C284.15,-172 289.38,-172 289.38,-172 289.38,-172 289.38,-104 289.38,-104 289.38,-104 437.25,-104 437.25,-104"/>
<polygon fill="black" stroke="black" points="437.25,-107.5 447.25,-104 437.25,-100.5 437.25,-107.5"/>
</g>
<!-- MaterialModule -->
<g id="node5" class="node">
<title>MaterialModule</title>
<polygon fill="#8dd3c7" stroke="black" points="277.47,-122 274.47,-126 253.47,-126 250.47,-122 170.53,-122 170.53,-86 277.47,-86 277.47,-122"/>
<text text-anchor="middle" x="224" y="-99.8" font-family="Times,serif" font-size="14.00">MaterialModule</text>
</g>
<!-- MaterialModule&#45;&gt;AppModule -->
<g id="edge4" class="edge">
<title>MaterialModule&#45;&gt;AppModule</title>
<path fill="none" stroke="black" d="M176.82,-122.21C176.82,-122.21 176.82,-208.58 176.82,-208.58"/>
<polygon fill="black" stroke="black" points="173.32,-208.58 176.82,-218.58 180.32,-208.58 173.32,-208.58"/>
</g>
<!-- MaterialModule&#45;&gt;HomeModule -->
<g id="edge11" class="edge">
<title>MaterialModule&#45;&gt;HomeModule</title>
<path fill="none" stroke="black" d="M196.51,-122.22C196.51,-122.22 196.51,-143.73 196.51,-143.73"/>
<polygon fill="black" stroke="black" points="193.01,-143.73 196.51,-153.73 200.01,-143.73 193.01,-143.73"/>
</g>
<!-- CarBrandsComponent -->
<g id="node7" class="node">
<title>CarBrandsComponent</title>
<polygon fill="#ffffb3" stroke="black" points="1223.7,-122 1082.3,-122 1082.3,-86 1223.7,-86 1223.7,-122"/>
<text text-anchor="middle" x="1153" y="-99.8" font-family="Times,serif" font-size="14.00">CarBrandsComponent</text>
</g>
<!-- CarBrandsComponent&#45;&gt;HomeModule -->
<g id="edge6" class="edge">
<title>CarBrandsComponent&#45;&gt;HomeModule</title>
<path fill="none" stroke="black" d="M1153,-122.13C1153,-132.71 1153,-144 1153,-144 1153,-144 250.09,-144 250.09,-144 250.09,-144 250.09,-144.98 250.09,-144.98"/>
<polygon fill="black" stroke="black" points="246.59,-143.79 250.09,-153.79 253.59,-143.79 246.59,-143.79"/>
</g>
<!-- CarsListComponent -->
<g id="node8" class="node">
<title>CarsListComponent</title>
<polygon fill="#ffffb3" stroke="black" points="1064.27,-122 935.73,-122 935.73,-86 1064.27,-86 1064.27,-122"/>
<text text-anchor="middle" x="1000" y="-99.8" font-family="Times,serif" font-size="14.00">CarsListComponent</text>
</g>
<!-- CarsListComponent&#45;&gt;HomeModule -->
<g id="edge7" class="edge">
<title>CarsListComponent&#45;&gt;HomeModule</title>
<path fill="none" stroke="black" d="M1000,-122.19C1000,-130.28 1000,-138 1000,-138 1000,-138 236.7,-138 236.7,-138 236.7,-138 236.7,-143.81 236.7,-143.81"/>
<polygon fill="black" stroke="black" points="233.2,-143.81 236.7,-153.81 240.2,-143.81 233.2,-143.81"/>
</g>
<!-- DataNotFoundComponent -->
<g id="node9" class="node">
<title>DataNotFoundComponent</title>
<polygon fill="#ffffb3" stroke="black" points="917.04,-122 752.96,-122 752.96,-86 917.04,-86 917.04,-122"/>
<text text-anchor="middle" x="835" y="-99.8" font-family="Times,serif" font-size="14.00">DataNotFoundComponent</text>
</g>
<!-- DataNotFoundComponent&#45;&gt;HomeModule -->
<g id="edge8" class="edge">
<title>DataNotFoundComponent&#45;&gt;HomeModule</title>
<path fill="none" stroke="black" d="M835,-122.2C835,-128.03 835,-133 835,-133 835,-133 223.3,-133 223.3,-133 223.3,-133 223.3,-143.87 223.3,-143.87"/>
<polygon fill="black" stroke="black" points="219.8,-143.87 223.3,-153.87 226.8,-143.87 219.8,-143.87"/>
</g>
<!-- HomeComponent -->
<g id="node10" class="node">
<title>HomeComponent</title>
<polygon fill="#ffffb3" stroke="black" points="1356.55,-122 1241.45,-122 1241.45,-86 1356.55,-86 1356.55,-122"/>
<text text-anchor="middle" x="1299" y="-99.8" font-family="Times,serif" font-size="14.00">HomeComponent</text>
</g>
<!-- HomeComponent&#45;&gt;HomeModule -->
<g id="edge9" class="edge">
<title>HomeComponent&#45;&gt;HomeModule</title>
<path fill="none" stroke="black" d="M1299,-122.04C1299,-134.56 1299,-149 1299,-149 1299,-149 263.49,-149 263.49,-149 263.49,-149 263.49,-149.49 263.49,-149.49"/>
<polygon fill="black" stroke="black" points="259.99,-143.88 263.49,-153.88 266.99,-143.88 259.99,-143.88"/>
</g>
<!-- HomeRoutingModule -->
<g id="node11" class="node">
<title>HomeRoutingModule</title>
<polygon fill="#8dd3c7" stroke="black" points="729.38,-122 726.38,-126 705.38,-126 702.38,-122 590.62,-122 590.62,-86 729.38,-86 729.38,-122"/>
<text text-anchor="middle" x="660" y="-99.8" font-family="Times,serif" font-size="14.00">HomeRoutingModule</text>
</g>
<!-- HomeRoutingModule&#45;&gt;HomeModule -->
<g id="edge10" class="edge">
<title>HomeRoutingModule&#45;&gt;HomeModule</title>
<path fill="none" stroke="black" d="M660,-122.19C660,-125.54 660,-128 660,-128 660,-128 209.91,-128 209.91,-128 209.91,-128 209.91,-143.85 209.91,-143.85"/>
<polygon fill="black" stroke="black" points="206.41,-143.85 209.91,-153.85 213.41,-143.85 206.41,-143.85"/>
</g>
<!-- SharedRoutingModule -->
<g id="node13" class="node">
<title>SharedRoutingModule</title>
<polygon fill="#8dd3c7" stroke="black" points="1540.54,-122 1537.54,-126 1516.54,-126 1513.54,-122 1397.46,-122 1397.46,-86 1540.54,-86 1540.54,-122"/>
<text text-anchor="middle" x="1469" y="-99.8" font-family="Times,serif" font-size="14.00">SharedRoutingModule</text>
</g>
<!-- SharedModule -->
<g id="node14" class="node">
<title>SharedModule</title>
<polygon fill="#8dd3c7" stroke="black" points="1518.42,-190 1515.42,-194 1494.42,-194 1491.42,-190 1419.58,-190 1419.58,-154 1518.42,-154 1518.42,-190"/>
<text text-anchor="middle" x="1469" y="-167.8" font-family="Times,serif" font-size="14.00">SharedModule</text>
</g>
<!-- SharedRoutingModule&#45;&gt;SharedModule -->
<g id="edge13" class="edge">
<title>SharedRoutingModule&#45;&gt;SharedModule</title>
<path fill="none" stroke="black" d="M1469,-122.22C1469,-122.22 1469,-143.73 1469,-143.73"/>
<polygon fill="black" stroke="black" points="1465.5,-143.73 1469,-153.73 1472.5,-143.73 1465.5,-143.73"/>
</g>
</g>
</svg>
